<mxfile host="app.diagrams.net" modified="2021-09-16T10:41:55.366Z" agent="5.0 (Windows NT 10.0; Win64; x64) AppleWebKit/537.36 (KHTML, like Gecko) Chrome/92.0.4515.131 Safari/537.36" etag="HeaICQBB5d-HlsKQmO-a" version="15.2.7" type="github">
  <diagram id="A37DV3WjvMcnFRjcwWZq" name="Page-1">
    <mxGraphModel dx="593" dy="2665" grid="1" gridSize="10" guides="1" tooltips="1" connect="1" arrows="1" fold="1" page="1" pageScale="1" pageWidth="1654" pageHeight="2336" math="0" shadow="0">
      <root>
        <mxCell id="0" />
        <mxCell id="1" parent="0" />
        <mxCell id="saQZrc7lZc9PZ6fEef2M-4" value="ExchangeClients" style="swimlane;fontStyle=3;align=center;verticalAlign=top;childLayout=stackLayout;horizontal=1;startSize=30;horizontalStack=0;resizeParent=1;resizeParentMax=0;resizeLast=0;collapsible=1;marginBottom=0;direction=east;" parent="1" vertex="1">
          <mxGeometry x="965" y="640" width="230" height="150" as="geometry" />
        </mxCell>
        <mxCell id="saQZrc7lZc9PZ6fEef2M-5" value="# apiKey: String&#xa;# secret: String&#xa;" style="text;strokeColor=none;fillColor=none;align=left;verticalAlign=top;spacingLeft=4;spacingRight=4;overflow=hidden;rotatable=0;points=[[0,0.5],[1,0.5]];portConstraint=eastwest;" parent="saQZrc7lZc9PZ6fEef2M-4" vertex="1">
          <mxGeometry y="30" width="230" height="44" as="geometry" />
        </mxCell>
        <mxCell id="saQZrc7lZc9PZ6fEef2M-6" value="" style="line;strokeWidth=1;fillColor=none;align=left;verticalAlign=middle;spacingTop=-1;spacingLeft=3;spacingRight=3;rotatable=0;labelPosition=right;points=[];portConstraint=eastwest;" parent="saQZrc7lZc9PZ6fEef2M-4" vertex="1">
          <mxGeometry y="74" width="230" height="8" as="geometry" />
        </mxCell>
        <mxCell id="saQZrc7lZc9PZ6fEef2M-7" value="&#xa;+ createRestClient(): T&#xa;+ createWebsocket(): S" style="text;strokeColor=none;fillColor=none;align=left;verticalAlign=top;spacingLeft=4;spacingRight=4;overflow=hidden;rotatable=0;points=[[0,0.5],[1,0.5]];portConstraint=eastwest;fontStyle=2" parent="saQZrc7lZc9PZ6fEef2M-4" vertex="1">
          <mxGeometry y="82" width="230" height="68" as="geometry" />
        </mxCell>
        <mxCell id="Da_OF9Gurfcos5c7iNsH-5" value="" style="rounded=0;whiteSpace=wrap;html=1;glass=0;sketch=0;fillColor=none;" parent="1" vertex="1">
          <mxGeometry x="1850" y="-439" width="1390" height="1020" as="geometry" />
        </mxCell>
        <mxCell id="Da_OF9Gurfcos5c7iNsH-11" value="Control" style="swimlane;fontStyle=1;align=center;verticalAlign=top;childLayout=stackLayout;horizontal=1;startSize=26;horizontalStack=0;resizeParent=1;resizeParentMax=0;resizeLast=0;collapsible=1;marginBottom=0;" parent="1" vertex="1">
          <mxGeometry x="80" y="-30" width="230" height="130" as="geometry" />
        </mxCell>
        <mxCell id="Da_OF9Gurfcos5c7iNsH-12" value="- apiKey: String&#xa;- secret: String&#xa;" style="text;strokeColor=none;fillColor=none;align=left;verticalAlign=top;spacingLeft=4;spacingRight=4;overflow=hidden;rotatable=0;points=[[0,0.5],[1,0.5]];portConstraint=eastwest;" parent="Da_OF9Gurfcos5c7iNsH-11" vertex="1">
          <mxGeometry y="26" width="230" height="44" as="geometry" />
        </mxCell>
        <mxCell id="Da_OF9Gurfcos5c7iNsH-13" value="" style="line;strokeWidth=1;fillColor=none;align=left;verticalAlign=middle;spacingTop=-1;spacingLeft=3;spacingRight=3;rotatable=0;labelPosition=right;points=[];portConstraint=eastwest;" parent="Da_OF9Gurfcos5c7iNsH-11" vertex="1">
          <mxGeometry y="70" width="230" height="8" as="geometry" />
        </mxCell>
        <mxCell id="Da_OF9Gurfcos5c7iNsH-14" value="+ createWebsocket(): WebsocketClient&#xa;+ createRestClient(): RestClient" style="text;strokeColor=none;fillColor=none;align=left;verticalAlign=top;spacingLeft=4;spacingRight=4;overflow=hidden;rotatable=0;points=[[0,0.5],[1,0.5]];portConstraint=eastwest;" parent="Da_OF9Gurfcos5c7iNsH-11" vertex="1">
          <mxGeometry y="78" width="230" height="52" as="geometry" />
        </mxCell>
        <mxCell id="5m-mVSH9zPSaH-w6CBmt-1" value="&lt;&lt;interface&gt;&gt;&#xa;RestUrlList(Binance&#39;s,Huobi&#39;s...)" style="swimlane;fontStyle=1;align=center;verticalAlign=top;childLayout=stackLayout;horizontal=1;startSize=40;horizontalStack=0;resizeParent=1;resizeParentMax=0;resizeLast=0;collapsible=1;marginBottom=0;" parent="1" vertex="1">
          <mxGeometry x="1480" y="10" width="340" height="80" as="geometry">
            <mxRectangle x="1330" y="440" width="110" height="30" as="alternateBounds" />
          </mxGeometry>
        </mxCell>
        <mxCell id="5m-mVSH9zPSaH-w6CBmt-3" value="" style="line;strokeWidth=1;fillColor=none;align=left;verticalAlign=middle;spacingTop=-1;spacingLeft=3;spacingRight=3;rotatable=0;labelPosition=right;points=[];portConstraint=eastwest;" parent="5m-mVSH9zPSaH-w6CBmt-1" vertex="1">
          <mxGeometry y="40" width="340" height="8" as="geometry" />
        </mxCell>
        <mxCell id="5m-mVSH9zPSaH-w6CBmt-4" value="+getLatestPrices(): Call&lt;List&lt;TickerPrice&gt;&gt;" style="text;strokeColor=none;fillColor=none;align=left;verticalAlign=top;spacingLeft=4;spacingRight=4;overflow=hidden;rotatable=0;points=[[0,0.5],[1,0.5]];portConstraint=eastwest;" parent="5m-mVSH9zPSaH-w6CBmt-1" vertex="1">
          <mxGeometry y="48" width="340" height="32" as="geometry" />
        </mxCell>
        <mxCell id="saQZrc7lZc9PZ6fEef2M-20" value="Use" style="endArrow=open;endSize=12;dashed=1;html=1;" parent="1" edge="1">
          <mxGeometry x="0.3978" width="160" relative="1" as="geometry">
            <mxPoint x="1075" y="320" as="sourcePoint" />
            <mxPoint x="1235" y="130" as="targetPoint" />
            <Array as="points">
              <mxPoint x="1075" y="240" />
              <mxPoint x="1120" y="240" />
              <mxPoint x="1165" y="240" />
              <mxPoint x="1235" y="240" />
            </Array>
            <mxPoint as="offset" />
          </mxGeometry>
        </mxCell>
        <mxCell id="saQZrc7lZc9PZ6fEef2M-21" value="Use" style="endArrow=open;endSize=12;dashed=1;html=1;entryX=0.512;entryY=1.028;entryDx=0;entryDy=0;entryPerimeter=0;" parent="1" target="WPX5YWxRIWcnjSOnMV8b-8" edge="1">
          <mxGeometry x="-0.016" y="-20" width="160" relative="1" as="geometry">
            <mxPoint x="1075" y="280" as="sourcePoint" />
            <mxPoint x="488" y="140" as="targetPoint" />
            <Array as="points">
              <mxPoint x="1075" y="240" />
              <mxPoint x="898" y="240" />
            </Array>
            <mxPoint as="offset" />
          </mxGeometry>
        </mxCell>
        <mxCell id="saQZrc7lZc9PZ6fEef2M-28" value="Use" style="endArrow=open;endSize=12;dashed=1;html=1;exitX=0.5;exitY=0;exitDx=0;exitDy=0;" parent="1" edge="1">
          <mxGeometry width="160" relative="1" as="geometry">
            <mxPoint x="1235" y="15.5" as="sourcePoint" />
            <mxPoint x="1078" y="-90" as="targetPoint" />
          </mxGeometry>
        </mxCell>
        <mxCell id="saQZrc7lZc9PZ6fEef2M-29" value="ApiServiceGenerator" style="swimlane;fontStyle=1;align=center;verticalAlign=top;childLayout=stackLayout;horizontal=1;startSize=28;horizontalStack=0;resizeParent=1;resizeParentMax=0;resizeLast=0;collapsible=1;marginBottom=0;" parent="1" vertex="1">
          <mxGeometry x="960" y="-380" width="240" height="290" as="geometry" />
        </mxCell>
        <mxCell id="saQZrc7lZc9PZ6fEef2M-30" value="# OkHttpClient: sharedClient&#xa;# converterFactory: Factory&#xa;# errorBodyConverter: Converter&#xa;&lt;ResponseBody, BinanceApiError&gt;" style="text;strokeColor=none;fillColor=none;align=left;verticalAlign=top;spacingLeft=4;spacingRight=4;overflow=hidden;rotatable=0;points=[[0,0.5],[1,0.5]];portConstraint=eastwest;fontStyle=4" parent="saQZrc7lZc9PZ6fEef2M-29" vertex="1">
          <mxGeometry y="28" width="240" height="72" as="geometry" />
        </mxCell>
        <mxCell id="saQZrc7lZc9PZ6fEef2M-31" value="" style="line;strokeWidth=1;fillColor=none;align=left;verticalAlign=middle;spacingTop=-1;spacingLeft=3;spacingRight=3;rotatable=0;labelPosition=right;points=[];portConstraint=eastwest;" parent="saQZrc7lZc9PZ6fEef2M-29" vertex="1">
          <mxGeometry y="100" width="240" height="8" as="geometry" />
        </mxCell>
        <mxCell id="saQZrc7lZc9PZ6fEef2M-32" value="+ executeSync(call: Call&lt;T&gt;):&#xa; &lt;T&gt; T" style="text;strokeColor=none;fillColor=none;align=left;verticalAlign=top;spacingLeft=4;spacingRight=4;overflow=hidden;rotatable=0;points=[[0,0.5],[1,0.5]];portConstraint=eastwest;fontStyle=4" parent="saQZrc7lZc9PZ6fEef2M-29" vertex="1">
          <mxGeometry y="108" width="240" height="42" as="geometry" />
        </mxCell>
        <mxCell id="saQZrc7lZc9PZ6fEef2M-33" value="+ getShareClient(): OkHttpClient&#xa;#connectWebSocket(channel: String,&#xa;listener: ExchangesWebSocketListener&lt;?&gt;,&#xa;exchange: String): WebsocketClient&#xa;" style="text;strokeColor=none;fillColor=none;align=left;verticalAlign=top;spacingLeft=4;spacingRight=4;overflow=hidden;rotatable=0;points=[[0,0.5],[1,0.5]];portConstraint=eastwest;fontStyle=4" parent="saQZrc7lZc9PZ6fEef2M-29" vertex="1">
          <mxGeometry y="150" width="240" height="80" as="geometry" />
        </mxCell>
        <mxCell id="CM9Afu2YifPehoNfD5sB-5" value="+ getApiError(response: Response&lt;?&gt;&#xa;): BinanceApiError&#xa;" style="text;strokeColor=none;fillColor=none;align=left;verticalAlign=top;spacingLeft=4;spacingRight=4;overflow=hidden;rotatable=0;points=[[0,0.5],[1,0.5]];portConstraint=eastwest;fontStyle=4" parent="saQZrc7lZc9PZ6fEef2M-29" vertex="1">
          <mxGeometry y="230" width="240" height="60" as="geometry" />
        </mxCell>
        <mxCell id="saQZrc7lZc9PZ6fEef2M-36" value="&amp;lt;&amp;lt;Exception&amp;gt;&amp;gt;&lt;br&gt;IOExcepition&lt;br&gt;ApiError" style="html=1;" parent="1" vertex="1">
          <mxGeometry x="1470" y="-249.9999999999999" width="110" height="50" as="geometry" />
        </mxCell>
        <mxCell id="saQZrc7lZc9PZ6fEef2M-37" value="&amp;lt;&amp;lt;send&amp;gt;&amp;gt;" style="endArrow=open;endSize=12;dashed=1;html=1;entryX=0;entryY=0.5;entryDx=0;entryDy=0;" parent="1" target="saQZrc7lZc9PZ6fEef2M-36" edge="1">
          <mxGeometry x="-0.1184" width="160" relative="1" as="geometry">
            <mxPoint x="1190" y="-110" as="sourcePoint" />
            <mxPoint x="1444.24" y="-314.8599999999999" as="targetPoint" />
            <Array as="points">
              <mxPoint x="1170" y="-140" />
              <mxPoint x="1190" y="-110" />
              <mxPoint x="1220" y="-150" />
              <mxPoint x="1250" y="-220" />
              <mxPoint x="1350" y="-220" />
            </Array>
            <mxPoint as="offset" />
          </mxGeometry>
        </mxCell>
        <mxCell id="saQZrc7lZc9PZ6fEef2M-52" value="Use" style="endArrow=open;endSize=12;dashed=1;html=1;entryX=0;entryY=0.5;entryDx=0;entryDy=0;" parent="1" target="saQZrc7lZc9PZ6fEef2M-32" edge="1">
          <mxGeometry width="160" relative="1" as="geometry">
            <mxPoint x="730" y="-270" as="sourcePoint" />
            <mxPoint x="1010" y="-242" as="targetPoint" />
            <Array as="points" />
          </mxGeometry>
        </mxCell>
        <mxCell id="PJy8-3jixAbegAJKg2Lp-66" value="ExchangesError" style="swimlane;fontStyle=1;align=center;verticalAlign=top;childLayout=stackLayout;horizontal=1;startSize=26;horizontalStack=0;resizeParent=1;resizeParentMax=0;resizeLast=0;collapsible=1;marginBottom=0;" parent="1" vertex="1">
          <mxGeometry x="1300" y="-460" width="230" height="140" as="geometry" />
        </mxCell>
        <mxCell id="PJy8-3jixAbegAJKg2Lp-67" value="# base_domain: String" style="text;strokeColor=none;fillColor=none;align=left;verticalAlign=top;spacingLeft=4;spacingRight=4;overflow=hidden;rotatable=0;points=[[0,0.5],[1,0.5]];portConstraint=eastwest;fontStyle=4" parent="PJy8-3jixAbegAJKg2Lp-66" vertex="1">
          <mxGeometry y="26" width="230" height="24" as="geometry" />
        </mxCell>
        <mxCell id="PJy8-3jixAbegAJKg2Lp-68" value="" style="line;strokeWidth=1;fillColor=none;align=left;verticalAlign=middle;spacingTop=-1;spacingLeft=3;spacingRight=3;rotatable=0;labelPosition=right;points=[];portConstraint=eastwest;" parent="PJy8-3jixAbegAJKg2Lp-66" vertex="1">
          <mxGeometry y="50" width="230" height="8" as="geometry" />
        </mxCell>
        <mxCell id="PJy8-3jixAbegAJKg2Lp-69" value="+ setBaseDomain(domain: String): void&#xa;+ getBaseDomain(): String&#xa;" style="text;strokeColor=none;fillColor=none;align=left;verticalAlign=top;spacingLeft=4;spacingRight=4;overflow=hidden;rotatable=0;points=[[0,0.5],[1,0.5]];portConstraint=eastwest;fontStyle=0" parent="PJy8-3jixAbegAJKg2Lp-66" vertex="1">
          <mxGeometry y="58" width="230" height="30" as="geometry" />
        </mxCell>
        <mxCell id="PJy8-3jixAbegAJKg2Lp-70" value="+ getBaseUrl(): String&#xa;+ getStreamBaseUrl(): String&#xa;" style="text;strokeColor=none;fillColor=none;align=left;verticalAlign=top;spacingLeft=4;spacingRight=4;overflow=hidden;rotatable=0;points=[[0,0.5],[1,0.5]];portConstraint=eastwest;fontStyle=2" parent="PJy8-3jixAbegAJKg2Lp-66" vertex="1">
          <mxGeometry y="88" width="230" height="52" as="geometry" />
        </mxCell>
        <mxCell id="PJy8-3jixAbegAJKg2Lp-76" value="ExchangesException" style="swimlane;fontStyle=1;align=center;verticalAlign=top;childLayout=stackLayout;horizontal=1;startSize=26;horizontalStack=0;resizeParent=1;resizeParentMax=0;resizeLast=0;collapsible=1;marginBottom=0;" parent="1" vertex="1">
          <mxGeometry x="400" width="230" height="140" as="geometry" />
        </mxCell>
        <mxCell id="PJy8-3jixAbegAJKg2Lp-77" value="# base_domain: String" style="text;strokeColor=none;fillColor=none;align=left;verticalAlign=top;spacingLeft=4;spacingRight=4;overflow=hidden;rotatable=0;points=[[0,0.5],[1,0.5]];portConstraint=eastwest;fontStyle=4" parent="PJy8-3jixAbegAJKg2Lp-76" vertex="1">
          <mxGeometry y="26" width="230" height="24" as="geometry" />
        </mxCell>
        <mxCell id="PJy8-3jixAbegAJKg2Lp-78" value="" style="line;strokeWidth=1;fillColor=none;align=left;verticalAlign=middle;spacingTop=-1;spacingLeft=3;spacingRight=3;rotatable=0;labelPosition=right;points=[];portConstraint=eastwest;" parent="PJy8-3jixAbegAJKg2Lp-76" vertex="1">
          <mxGeometry y="50" width="230" height="8" as="geometry" />
        </mxCell>
        <mxCell id="PJy8-3jixAbegAJKg2Lp-79" value="+ setBaseDomain(domain: String): void&#xa;+ getBaseDomain(): String&#xa;" style="text;strokeColor=none;fillColor=none;align=left;verticalAlign=top;spacingLeft=4;spacingRight=4;overflow=hidden;rotatable=0;points=[[0,0.5],[1,0.5]];portConstraint=eastwest;fontStyle=0" parent="PJy8-3jixAbegAJKg2Lp-76" vertex="1">
          <mxGeometry y="58" width="230" height="30" as="geometry" />
        </mxCell>
        <mxCell id="PJy8-3jixAbegAJKg2Lp-80" value="+ getBaseUrl(): String&#xa;+ getStreamBaseUrl(): String&#xa;" style="text;strokeColor=none;fillColor=none;align=left;verticalAlign=top;spacingLeft=4;spacingRight=4;overflow=hidden;rotatable=0;points=[[0,0.5],[1,0.5]];portConstraint=eastwest;fontStyle=2" parent="PJy8-3jixAbegAJKg2Lp-76" vertex="1">
          <mxGeometry y="88" width="230" height="52" as="geometry" />
        </mxCell>
        <mxCell id="WPX5YWxRIWcnjSOnMV8b-4" value="WebSocketClient(Binance&#39;s,Huobi&#39;s...)" style="swimlane;fontStyle=1;align=center;verticalAlign=top;childLayout=stackLayout;horizontal=1;startSize=30;horizontalStack=0;resizeParent=1;resizeParentMax=0;resizeLast=0;collapsible=1;marginBottom=0;" parent="1" vertex="1">
          <mxGeometry x="750" y="25.999999999999943" width="290" height="90" as="geometry" />
        </mxCell>
        <mxCell id="WPX5YWxRIWcnjSOnMV8b-6" value="" style="line;strokeWidth=1;fillColor=none;align=left;verticalAlign=middle;spacingTop=-1;spacingLeft=3;spacingRight=3;rotatable=0;labelPosition=right;points=[];portConstraint=eastwest;" parent="WPX5YWxRIWcnjSOnMV8b-4" vertex="1">
          <mxGeometry y="30" width="290" height="8" as="geometry" />
        </mxCell>
        <mxCell id="WPX5YWxRIWcnjSOnMV8b-8" value="+ MarketTickersEvent(callback: Callback&#xa;&lt;List&lt;TickerEvent&gt; ): Closeable&#xa;" style="text;strokeColor=none;fillColor=none;align=left;verticalAlign=top;spacingLeft=4;spacingRight=4;overflow=hidden;rotatable=0;points=[[0,0.5],[1,0.5]];portConstraint=eastwest;fontStyle=0" parent="WPX5YWxRIWcnjSOnMV8b-4" vertex="1">
          <mxGeometry y="38" width="290" height="52" as="geometry" />
        </mxCell>
        <mxCell id="yuhyR-sOTvn7wae4s6oN-4" value="Use" style="endArrow=open;endSize=12;dashed=1;html=1;entryX=0.003;entryY=-0.067;entryDx=0;entryDy=0;entryPerimeter=0;exitX=1;exitY=0.5;exitDx=0;exitDy=0;" parent="1" source="yuhyR-sOTvn7wae4s6oN-11" target="5m-mVSH9zPSaH-w6CBmt-4" edge="1">
          <mxGeometry width="160" relative="1" as="geometry">
            <mxPoint x="1330.5700000000002" y="55.314000000000306" as="sourcePoint" />
            <mxPoint x="1654.4499999999998" y="54.368000000000045" as="targetPoint" />
          </mxGeometry>
        </mxCell>
        <mxCell id="yuhyR-sOTvn7wae4s6oN-10" value="RestClient(Binance&#39;s,Huobi&#39;s...)" style="swimlane;fontStyle=1;align=center;verticalAlign=top;childLayout=stackLayout;horizontal=1;startSize=28;horizontalStack=0;resizeParent=1;resizeParentMax=0;resizeLast=0;collapsible=1;marginBottom=0;" parent="1" vertex="1">
          <mxGeometry x="1120" y="16" width="240" height="110" as="geometry" />
        </mxCell>
        <mxCell id="yuhyR-sOTvn7wae4s6oN-11" value="- RestUrlList: restUrlList" style="text;strokeColor=none;fillColor=none;align=left;verticalAlign=top;spacingLeft=4;spacingRight=4;overflow=hidden;rotatable=0;points=[[0,0.5],[1,0.5]];portConstraint=eastwest;fontStyle=0" parent="yuhyR-sOTvn7wae4s6oN-10" vertex="1">
          <mxGeometry y="28" width="240" height="22" as="geometry" />
        </mxCell>
        <mxCell id="yuhyR-sOTvn7wae4s6oN-12" value="" style="line;strokeWidth=1;fillColor=none;align=left;verticalAlign=middle;spacingTop=-1;spacingLeft=3;spacingRight=3;rotatable=0;labelPosition=right;points=[];portConstraint=eastwest;" parent="yuhyR-sOTvn7wae4s6oN-10" vertex="1">
          <mxGeometry y="50" width="240" height="8" as="geometry" />
        </mxCell>
        <mxCell id="yuhyR-sOTvn7wae4s6oN-13" value="+RestClient(apiKey:String, secret:&#xa;String)&#xa;+getAllPrice(): List&lt;TickerPrice&gt;" style="text;strokeColor=none;fillColor=none;align=left;verticalAlign=top;spacingLeft=4;spacingRight=4;overflow=hidden;rotatable=0;points=[[0,0.5],[1,0.5]];portConstraint=eastwest;fontStyle=0" parent="yuhyR-sOTvn7wae4s6oN-10" vertex="1">
          <mxGeometry y="58" width="240" height="52" as="geometry" />
        </mxCell>
        <mxCell id="yuhyR-sOTvn7wae4s6oN-23" value="ExchangesWebSocketListener" style="swimlane;fontStyle=1;align=center;verticalAlign=top;childLayout=stackLayout;horizontal=1;startSize=26;horizontalStack=0;resizeParent=1;resizeParentMax=0;resizeLast=0;collapsible=1;marginBottom=0;" parent="1" vertex="1">
          <mxGeometry x="470" y="-400" width="250" height="320" as="geometry" />
        </mxCell>
        <mxCell id="yuhyR-sOTvn7wae4s6oN-24" value="- callback : CallBack&lt;T&gt;&#xa;-sendType: String&#xa;-mapper: ObjectMapper&#xa;-objectReader: ObjectReader&#xa;-closing: boolean&#xa;-pong: String&#xa;-scheduler: ScheduledExecutorService&#xa;&#xa;" style="text;strokeColor=none;fillColor=none;align=left;verticalAlign=top;spacingLeft=4;spacingRight=4;overflow=hidden;rotatable=0;points=[[0,0.5],[1,0.5]];portConstraint=eastwest;fontStyle=0" parent="yuhyR-sOTvn7wae4s6oN-23" vertex="1">
          <mxGeometry y="26" width="250" height="114" as="geometry" />
        </mxCell>
        <mxCell id="yuhyR-sOTvn7wae4s6oN-25" value="" style="line;strokeWidth=1;fillColor=none;align=left;verticalAlign=middle;spacingTop=-1;spacingLeft=3;spacingRight=3;rotatable=0;labelPosition=right;points=[];portConstraint=eastwest;" parent="yuhyR-sOTvn7wae4s6oN-23" vertex="1">
          <mxGeometry y="140" width="250" height="8" as="geometry" />
        </mxCell>
        <mxCell id="yuhyR-sOTvn7wae4s6oN-26" value="+ExchangesWebSocketListener(callback:&#xa; CallBack&lt;T&gt; ,eventClass: Class&lt;T&gt; ) &#xa;+ExchangesWebSocketListener(callback:&#xa;CallBack&lt;T&gt;,eventClass:Class&lt;T&gt;,&#xa;sendtype :String &#xa;) &#xa;+&#xa;+&#xa;+&#xa;+&#xa;+&#xa;+&#xa;+&#xa;+" style="text;strokeColor=none;fillColor=none;align=left;verticalAlign=top;spacingLeft=4;spacingRight=4;overflow=hidden;rotatable=0;points=[[0,0.5],[1,0.5]];portConstraint=eastwest;fontStyle=4" parent="yuhyR-sOTvn7wae4s6oN-23" vertex="1">
          <mxGeometry y="148" width="250" height="172" as="geometry" />
        </mxCell>
        <mxCell id="EWYJBneFfF85YlwlRIp2-1" value="Use" style="endArrow=open;endSize=12;dashed=1;html=1;exitX=0.5;exitY=0;exitDx=0;exitDy=0;" parent="1" source="WPX5YWxRIWcnjSOnMV8b-4" edge="1">
          <mxGeometry width="160" relative="1" as="geometry">
            <mxPoint x="905" y="20" as="sourcePoint" />
            <mxPoint x="1080" y="-90" as="targetPoint" />
          </mxGeometry>
        </mxCell>
        <mxCell id="EWYJBneFfF85YlwlRIp2-10" value="" style="group;direction=east;" parent="1" vertex="1" connectable="0">
          <mxGeometry x="1130" y="620" width="90" height="40" as="geometry" />
        </mxCell>
        <mxCell id="EWYJBneFfF85YlwlRIp2-8" value="" style="rounded=0;whiteSpace=wrap;html=1;dashed=1;" parent="EWYJBneFfF85YlwlRIp2-10" vertex="1">
          <mxGeometry width="90" height="40" as="geometry" />
        </mxCell>
        <mxCell id="EWYJBneFfF85YlwlRIp2-9" value="T,S" style="text;html=1;align=center;verticalAlign=middle;resizable=0;points=[];autosize=1;strokeColor=none;" parent="EWYJBneFfF85YlwlRIp2-10" vertex="1">
          <mxGeometry x="30" y="10" width="30" height="20" as="geometry" />
        </mxCell>
        <mxCell id="m2CBm33dsmFT7d-ArpLm-4" value="BinanceClients" style="swimlane;fontStyle=1;align=center;verticalAlign=top;childLayout=stackLayout;horizontal=1;startSize=30;horizontalStack=0;resizeParent=1;resizeParentMax=0;resizeLast=0;collapsible=1;marginBottom=0;" parent="1" vertex="1">
          <mxGeometry x="580" y="410" width="230" height="38" as="geometry" />
        </mxCell>
        <mxCell id="m2CBm33dsmFT7d-ArpLm-5" value="" style="line;strokeWidth=1;fillColor=none;align=left;verticalAlign=middle;spacingTop=-1;spacingLeft=3;spacingRight=3;rotatable=0;labelPosition=right;points=[];portConstraint=eastwest;" parent="m2CBm33dsmFT7d-ArpLm-4" vertex="1">
          <mxGeometry y="30" width="230" height="8" as="geometry" />
        </mxCell>
        <mxCell id="m2CBm33dsmFT7d-ArpLm-7" value="HuobiClients" style="swimlane;fontStyle=1;align=center;verticalAlign=top;childLayout=stackLayout;horizontal=1;startSize=30;horizontalStack=0;resizeParent=1;resizeParentMax=0;resizeLast=0;collapsible=1;marginBottom=0;" parent="1" vertex="1">
          <mxGeometry x="840" y="410" width="230" height="38" as="geometry" />
        </mxCell>
        <mxCell id="m2CBm33dsmFT7d-ArpLm-8" value="" style="line;strokeWidth=1;fillColor=none;align=left;verticalAlign=middle;spacingTop=-1;spacingLeft=3;spacingRight=3;rotatable=0;labelPosition=right;points=[];portConstraint=eastwest;" parent="m2CBm33dsmFT7d-ArpLm-7" vertex="1">
          <mxGeometry y="30" width="230" height="8" as="geometry" />
        </mxCell>
        <mxCell id="m2CBm33dsmFT7d-ArpLm-10" value="KubiClients" style="swimlane;fontStyle=1;align=center;verticalAlign=top;childLayout=stackLayout;horizontal=1;startSize=30;horizontalStack=0;resizeParent=1;resizeParentMax=0;resizeLast=0;collapsible=1;marginBottom=0;" parent="1" vertex="1">
          <mxGeometry x="1100" y="410" width="230" height="38" as="geometry" />
        </mxCell>
        <mxCell id="m2CBm33dsmFT7d-ArpLm-11" value="" style="line;strokeWidth=1;fillColor=none;align=left;verticalAlign=middle;spacingTop=-1;spacingLeft=3;spacingRight=3;rotatable=0;labelPosition=right;points=[];portConstraint=eastwest;" parent="m2CBm33dsmFT7d-ArpLm-10" vertex="1">
          <mxGeometry y="30" width="230" height="8" as="geometry" />
        </mxCell>
        <mxCell id="m2CBm33dsmFT7d-ArpLm-16" value="OkexClients" style="swimlane;fontStyle=1;align=center;verticalAlign=top;childLayout=stackLayout;horizontal=1;startSize=30;horizontalStack=0;resizeParent=1;resizeParentMax=0;resizeLast=0;collapsible=1;marginBottom=0;" parent="1" vertex="1">
          <mxGeometry x="1410" y="410" width="230" height="38" as="geometry" />
        </mxCell>
        <mxCell id="m2CBm33dsmFT7d-ArpLm-17" value="" style="line;strokeWidth=1;fillColor=none;align=left;verticalAlign=middle;spacingTop=-1;spacingLeft=3;spacingRight=3;rotatable=0;labelPosition=right;points=[];portConstraint=eastwest;" parent="m2CBm33dsmFT7d-ArpLm-16" vertex="1">
          <mxGeometry y="30" width="230" height="8" as="geometry" />
        </mxCell>
        <mxCell id="4DpUQDPaUJi2yu414M8M-12" value="" style="endArrow=none;dashed=1;html=1;exitX=0.5;exitY=0;exitDx=0;exitDy=0;" parent="1" source="m2CBm33dsmFT7d-ArpLm-4" edge="1">
          <mxGeometry width="50" height="50" relative="1" as="geometry">
            <mxPoint x="910" y="350" as="sourcePoint" />
            <mxPoint x="1070" y="320" as="targetPoint" />
            <Array as="points">
              <mxPoint x="695" y="320" />
            </Array>
          </mxGeometry>
        </mxCell>
        <mxCell id="4DpUQDPaUJi2yu414M8M-13" value="" style="endArrow=none;dashed=1;html=1;" parent="1" edge="1">
          <mxGeometry width="50" height="50" relative="1" as="geometry">
            <mxPoint x="1525" y="408" as="sourcePoint" />
            <mxPoint x="1070" y="320" as="targetPoint" />
            <Array as="points">
              <mxPoint x="1525" y="320" />
            </Array>
          </mxGeometry>
        </mxCell>
        <mxCell id="4DpUQDPaUJi2yu414M8M-14" value="" style="endArrow=none;dashed=1;html=1;exitX=0.5;exitY=0;exitDx=0;exitDy=0;" parent="1" source="m2CBm33dsmFT7d-ArpLm-10" edge="1">
          <mxGeometry width="50" height="50" relative="1" as="geometry">
            <mxPoint x="1535" y="418" as="sourcePoint" />
            <mxPoint x="1070" y="320" as="targetPoint" />
            <Array as="points">
              <mxPoint x="1215" y="320" />
            </Array>
          </mxGeometry>
        </mxCell>
        <mxCell id="4DpUQDPaUJi2yu414M8M-15" value="" style="endArrow=none;dashed=1;html=1;exitX=0.5;exitY=0;exitDx=0;exitDy=0;" parent="1" source="m2CBm33dsmFT7d-ArpLm-7" edge="1">
          <mxGeometry width="50" height="50" relative="1" as="geometry">
            <mxPoint x="1225" y="420" as="sourcePoint" />
            <mxPoint x="1070" y="320" as="targetPoint" />
            <Array as="points">
              <mxPoint x="955" y="320" />
            </Array>
          </mxGeometry>
        </mxCell>
        <mxCell id="4DpUQDPaUJi2yu414M8M-16" value="Extends" style="endArrow=block;endSize=16;endFill=0;html=1;" parent="1" edge="1">
          <mxGeometry width="160" relative="1" as="geometry">
            <mxPoint x="1080" y="550" as="sourcePoint" />
            <mxPoint x="1080" y="640" as="targetPoint" />
          </mxGeometry>
        </mxCell>
        <mxCell id="4DpUQDPaUJi2yu414M8M-17" value="" style="endArrow=none;html=1;" parent="1" edge="1">
          <mxGeometry width="50" height="50" relative="1" as="geometry">
            <mxPoint x="1080" y="550" as="sourcePoint" />
            <mxPoint x="1525" y="447" as="targetPoint" />
            <Array as="points">
              <mxPoint x="1525" y="550" />
            </Array>
          </mxGeometry>
        </mxCell>
        <mxCell id="4DpUQDPaUJi2yu414M8M-18" value="" style="endArrow=none;html=1;entryX=0.5;entryY=1;entryDx=0;entryDy=0;" parent="1" target="m2CBm33dsmFT7d-ArpLm-4" edge="1">
          <mxGeometry width="50" height="50" relative="1" as="geometry">
            <mxPoint x="1080" y="550" as="sourcePoint" />
            <mxPoint x="1535" y="457" as="targetPoint" />
            <Array as="points">
              <mxPoint x="695" y="550" />
            </Array>
          </mxGeometry>
        </mxCell>
        <mxCell id="4DpUQDPaUJi2yu414M8M-19" value="+ createBinance(): BinanceClients&#xa;+ createHuobi(): HuobiClients&#xa;+ createKubi(): KubiClients&#xa;+ createOkex(): OkexClients&#xa;" style="text;fillColor=none;align=left;verticalAlign=top;spacingLeft=4;spacingRight=4;overflow=hidden;rotatable=0;points=[[0,0.5],[1,0.5]];portConstraint=eastwest;fontStyle=0;strokeColor=#000000;" parent="1" vertex="1">
          <mxGeometry x="210" y="328" width="230" height="82" as="geometry" />
        </mxCell>
        <mxCell id="4DpUQDPaUJi2yu414M8M-20" value="ExchangeFactory" style="swimlane;fontStyle=1;align=center;verticalAlign=top;childLayout=stackLayout;horizontal=1;startSize=26;horizontalStack=0;resizeParent=1;resizeParentMax=0;resizeLast=0;collapsible=1;marginBottom=0;" parent="1" vertex="1">
          <mxGeometry x="210" y="228" width="230" height="100" as="geometry" />
        </mxCell>
        <mxCell id="4DpUQDPaUJi2yu414M8M-21" value="- factory: ExchangeFactory" style="text;strokeColor=none;fillColor=none;align=left;verticalAlign=top;spacingLeft=4;spacingRight=4;overflow=hidden;rotatable=0;points=[[0,0.5],[1,0.5]];portConstraint=eastwest;fontStyle=4" parent="4DpUQDPaUJi2yu414M8M-20" vertex="1">
          <mxGeometry y="26" width="230" height="34" as="geometry" />
        </mxCell>
        <mxCell id="4DpUQDPaUJi2yu414M8M-22" value="" style="line;strokeWidth=1;fillColor=none;align=left;verticalAlign=middle;spacingTop=-1;spacingLeft=3;spacingRight=3;rotatable=0;labelPosition=right;points=[];portConstraint=eastwest;" parent="4DpUQDPaUJi2yu414M8M-20" vertex="1">
          <mxGeometry y="60" width="230" height="8" as="geometry" />
        </mxCell>
        <mxCell id="4DpUQDPaUJi2yu414M8M-23" value="+ newInstance(): ExchangeFactory&#xa;" style="text;strokeColor=none;fillColor=none;align=left;verticalAlign=top;spacingLeft=4;spacingRight=4;overflow=hidden;rotatable=0;points=[[0,0.5],[1,0.5]];portConstraint=eastwest;fontStyle=4" parent="4DpUQDPaUJi2yu414M8M-20" vertex="1">
          <mxGeometry y="68" width="230" height="32" as="geometry" />
        </mxCell>
        <mxCell id="4DpUQDPaUJi2yu414M8M-26" value="" style="endArrow=none;html=1;entryX=0.5;entryY=1;entryDx=0;entryDy=0;" parent="1" target="m2CBm33dsmFT7d-ArpLm-10" edge="1">
          <mxGeometry width="50" height="50" relative="1" as="geometry">
            <mxPoint x="1080" y="550" as="sourcePoint" />
            <mxPoint x="1535" y="457" as="targetPoint" />
            <Array as="points">
              <mxPoint x="1215" y="550" />
            </Array>
          </mxGeometry>
        </mxCell>
        <mxCell id="4DpUQDPaUJi2yu414M8M-27" value="" style="endArrow=none;html=1;entryX=0.5;entryY=1;entryDx=0;entryDy=0;" parent="1" target="m2CBm33dsmFT7d-ArpLm-7" edge="1">
          <mxGeometry width="50" height="50" relative="1" as="geometry">
            <mxPoint x="1080" y="550" as="sourcePoint" />
            <mxPoint x="1225" y="458" as="targetPoint" />
            <Array as="points">
              <mxPoint x="955" y="550" />
            </Array>
          </mxGeometry>
        </mxCell>
        <mxCell id="4DpUQDPaUJi2yu414M8M-28" value="Use" style="endArrow=none;endSize=12;dashed=1;html=1;exitX=1.007;exitY=0.682;exitDx=0;exitDy=0;exitPerimeter=0;endFill=0;" parent="1" source="4DpUQDPaUJi2yu414M8M-23" edge="1">
          <mxGeometry width="160" relative="1" as="geometry">
            <mxPoint x="539.9999999999999" y="320.44799999999987" as="sourcePoint" />
            <mxPoint x="715.6299999999995" y="320" as="targetPoint" />
          </mxGeometry>
        </mxCell>
        <mxCell id="YmL_KbCpj7nPlXu3gKQG-1" value="Use" style="endArrow=open;endSize=12;dashed=1;html=1;exitX=0.003;exitY=0.217;exitDx=0;exitDy=0;entryX=1;entryY=0.5;entryDx=0;entryDy=0;exitPerimeter=0;" edge="1" parent="1" source="WPX5YWxRIWcnjSOnMV8b-8" target="PJy8-3jixAbegAJKg2Lp-79">
          <mxGeometry width="160" relative="1" as="geometry">
            <mxPoint x="904.9999999999995" y="36" as="sourcePoint" />
            <mxPoint x="1090" y="-79.99999999999955" as="targetPoint" />
          </mxGeometry>
        </mxCell>
      </root>
    </mxGraphModel>
  </diagram>
</mxfile>
